<svg xmlns="http://www.w3.org/2000/svg" width="33.244" height="27" viewBox="0 0 33.244 27">
  <path id="Icon_awesome-twitter" data-name="Icon awesome-twitter" d="M29.827,10.11c.021.3.021.591.021.886,0,9.007-6.855,19.385-19.385,19.385A19.254,19.254,0,0,1,0,27.322a14.1,14.1,0,0,0,1.645.084A13.645,13.645,0,0,0,10.1,24.5a6.825,6.825,0,0,1-6.37-4.725,8.592,8.592,0,0,0,1.287.105,7.206,7.206,0,0,0,1.793-.232A6.814,6.814,0,0,1,1.35,12.957v-.084a6.862,6.862,0,0,0,3.08.865A6.823,6.823,0,0,1,2.32,4.625a19.367,19.367,0,0,0,14.048,7.13,7.691,7.691,0,0,1-.169-1.561A6.82,6.82,0,0,1,27.991,5.532a13.414,13.414,0,0,0,4.324-1.645,6.8,6.8,0,0,1-3,3.755,13.659,13.659,0,0,0,3.923-1.055,14.646,14.646,0,0,1-3.417,3.523Z" transform="translate(0 -3.381)" fill="#3d4243"/>
</svg>
