<svg xmlns="http://www.w3.org/2000/svg" width="27.006" height="27" viewBox="0 0 27.006 27">
  <path id="Icon_awesome-instagram" data-name="Icon awesome-instagram" d="M13.5,8.815a6.922,6.922,0,1,0,6.922,6.922A6.912,6.912,0,0,0,13.5,8.815Zm0,11.423a4.5,4.5,0,1,1,4.5-4.5A4.509,4.509,0,0,1,13.5,20.238Zm8.82-11.706a1.615,1.615,0,1,1-1.615-1.615A1.611,1.611,0,0,1,22.321,8.532Zm4.585,1.639a7.99,7.99,0,0,0-2.181-5.657,8.043,8.043,0,0,0-5.657-2.181c-2.229-.127-8.911-.127-11.14,0A8.031,8.031,0,0,0,2.271,4.508,8.017,8.017,0,0,0,.09,10.165c-.127,2.229-.127,8.911,0,11.14a7.99,7.99,0,0,0,2.181,5.657,8.053,8.053,0,0,0,5.657,2.181c2.229.127,8.911.127,11.14,0a7.99,7.99,0,0,0,5.657-2.181A8.043,8.043,0,0,0,26.906,21.3c.127-2.229.127-8.9,0-11.134ZM24.026,23.7a4.556,4.556,0,0,1-2.567,2.567c-1.777.7-5.995.542-7.959.542s-6.187.157-7.959-.542A4.556,4.556,0,0,1,2.975,23.7c-.7-1.777-.542-5.995-.542-7.959s-.157-6.187.542-7.959A4.556,4.556,0,0,1,5.542,5.212c1.777-.7,5.995-.542,7.959-.542s6.187-.157,7.959.542a4.556,4.556,0,0,1,2.567,2.567c.7,1.777.542,5.995.542,7.959S24.731,21.925,24.026,23.7Z" transform="translate(0.005 -2.238)" fill="#3d4243"/>
</svg>
