<svg xmlns="http://www.w3.org/2000/svg" width="23" height="23" viewBox="0 0 23 23">
  <g id="Polygon_13" data-name="Polygon 13" fill="none">
    <path d="M11.5,0l2.875,8.553L23,8.785,16.152,14.3,18.607,23,11.5,17.857,4.393,23l2.456-8.7L0,8.785l8.625-.232Z" stroke="none"/>
    <path d="M 11.49999904632568 6.277284622192383 L 10.5207691192627 9.190569877624512 L 10.07556915283203 10.51508045196533 L 8.678749084472656 10.55263042449951 L 5.487434387207031 10.63842391967773 L 8.103018760681152 12.74602031707764 L 9.131958961486816 13.575119972229 L 8.77289867401123 14.84681034088135 L 7.880473136901855 18.00746536254883 L 10.32753944396973 16.23674964904785 L 11.49999904632568 15.38834953308105 L 12.67245864868164 16.23674964904785 L 15.11952495574951 18.00746536254883 L 14.22709941864014 14.84681034088135 L 13.86803913116455 13.575119972229 L 14.89697933197021 12.74602031707764 L 17.51256370544434 10.63842391967773 L 14.32124900817871 10.55263042449951 L 12.92442893981934 10.51508045196533 L 12.47922897338867 9.190569877624512 L 11.49999904632568 6.277284622192383 M 11.49999904632568 0 L 14.37499904632568 8.553350448608398 L 23 8.785220146179199 L 16.1518497467041 14.3033504486084 L 18.60738945007324 23 L 11.49999904632568 17.85704040527344 L 4.392608642578125 23 L 6.848148345947266 14.3033504486084 L -1.9073486328125e-06 8.785220146179199 L 8.624999046325684 8.553350448608398 L 11.49999904632568 0 Z" stroke="none" fill="#37a6f5"/>
  </g>
</svg>
