<svg xmlns="http://www.w3.org/2000/svg" width="23" height="23" viewBox="0 0 23 23">
  <g id="Polygon_4" data-name="Polygon 4" fill="#37a6f5">
    <path d="M 16.86346054077148 20.50373077392578 L 12.08622932434082 17.04689025878906 L 11.49999904632568 16.62269020080566 L 10.91376876831055 17.04689025878906 L 6.136536598205566 20.50373077392578 L 7.810519218444824 14.57507991790771 L 7.990058898925781 13.93922996520996 L 7.475589275360107 13.52468013763428 L 2.743727445602417 9.711821556091309 L 8.65186882019043 9.552989959716797 L 9.350289344787598 9.534210205078125 L 9.57288932800293 8.871959686279297 L 11.49999904632568 3.138656854629517 L 13.42710876464844 8.871959686279297 L 13.64970874786377 9.534210205078125 L 14.34812927246094 9.552989959716797 L 20.25627136230469 9.711821556091309 L 15.52440929412842 13.52468013763428 L 15.00993919372559 13.93922996520996 L 15.18947887420654 14.57507991790771 L 16.86346054077148 20.50373077392578 Z" stroke="none"/>
    <path d="M 11.49999904632568 6.277284622192383 L 10.5207691192627 9.190569877624512 L 10.07556915283203 10.51508045196533 L 8.678749084472656 10.55263042449951 L 5.487434387207031 10.63842391967773 L 8.103018760681152 12.74602031707764 L 9.131958961486816 13.575119972229 L 8.77289867401123 14.84681034088135 L 7.880473136901855 18.00746536254883 L 10.32753944396973 16.23674964904785 L 11.49999904632568 15.38834953308105 L 12.67245864868164 16.23674964904785 L 15.11952495574951 18.00746536254883 L 14.22709941864014 14.84681034088135 L 13.86803913116455 13.575119972229 L 14.89697933197021 12.74602031707764 L 17.51256370544434 10.63842391967773 L 14.32124900817871 10.55263042449951 L 12.92442893981934 10.51508045196533 L 12.47922897338867 9.190569877624512 L 11.49999904632568 6.277284622192383 M 11.49999904632568 0 L 14.37499904632568 8.553350448608398 L 23 8.785220146179199 L 16.1518497467041 14.3033504486084 L 18.60738945007324 23 L 11.49999904632568 17.85704040527344 L 4.392608642578125 23 L 6.848148345947266 14.3033504486084 L -1.9073486328125e-06 8.785220146179199 L 8.624999046325684 8.553350448608398 L 11.49999904632568 0 Z" stroke="none" fill="#37a6f5"/>
  </g>
</svg>
